<svg height="366pt" viewBox="-20 0 366 366.46472" width="366pt" xmlns="http://www.w3.org/2000/svg"><path d="m191.433594 189.261719-25.292969-39.269531c-1.433594-2.253907-2.097656-4.96875-1.84375-7.628907 1.078125-11.570312.410156-23.039062-1.996094-34.152343-.460937-2.046876-.101562-4.09375.972657-5.988282 6.863281-11.777344 6.605468-26.367187-.5625-38.042968-17.253907-27.800782-45.566407-48.128907-79.71875-57.292969-25.140626-6.707031-50.433594-8.550781-75.160157-5.375-4.761719.613281-8.140625 4.964843-7.527343 9.726562.613281 4.761719 4.964843 8.140625 9.726562 7.527344 22.527344-2.867187 45.570312-1.175781 68.507812 4.964844 29.847657 7.988281 54.527344 25.601562 69.425782 49.613281 3.839844 6.246094 3.941406 13.980469.308594 20.171875-3.277344 5.582031-4.300782 12.136719-2.917969 18.433594 2.046875 9.371093 2.609375 19.046875 1.636719 28.824219-.613282 6.503906 1.023437 13.160156 4.558593 18.691406l25.292969 39.269531c.972656 1.484375 1.125 3.328125.40625 4.863281-.714844 1.535156-2.199219 2.609375-3.941406 2.867188-3.53125.460937-6.910156.5625-10.035156.257812-.050782 0-.050782 0-.101563 0-.203125 0-.359375 0-.5625 0-.101563 0-.257813 0-.359375 0-.152344 0-.308594 0-.410156.050782-.152344 0-.304688 0-.460938.050781-.101562 0-.203125.050781-.304687.050781-.207031.050781-.410157.050781-.566407.101562-.050781 0-.050781 0-.101562 0s-.101562.050782-.152344.050782c-.207031.050781-.410156.101562-.5625.152344-.105468.054687-.207031.054687-.308594.105468-.152343.050782-.308593.152344-.460937.203125-.101563.050781-.253906.101563-.359375.152344-.152344.054687-.253906.15625-.410156.207031-.152344.050782-.253906.152344-.355469.253906-.105469.054688-.207031.15625-.308594.207032-.101562.101562-.253906.203125-.359375.253906-.101562.105469-.203125.15625-.304687.257812-.105469.101563-.207031.203126-.308594.308594-.101563.101563-.203125.203125-.308594.304688-.101562.101562-.203125.207031-.253906.308594-.101563.101562-.207031.203124-.257813.359374-.050781.101563-.152343.203126-.203124.304688-.101563.15625-.207032.257812-.257813.410156-.050781.101563-.101563.207032-.152344.308594-.101562.152344-.152343.304688-.257812.460938-.050781.101562-.101563.203124-.152344.304687-.050781.15625-.152344.308594-.203125.460937-.050781.105469-.101562.257813-.15625.359376-.050781.152343-.101562.257812-.101562.410156-.050782.152344-.101563.308594-.101563.460937 0 .101563-.050781.203125-.050781.359375-.050782.203125-.050782.355469-.101563.5625 0 .050782 0 .152344-.050781.203125v.101563.566406.355469c0 .15625 0 .308593.050781.460937 0 .15625 0 .308594.050781.460938 0 .105468.050782.207031.050782.359375.050781.203125.050781.359375.101562.511719v.101562l3.480469 13.980469c0 .101562.050781.152343.050781.253906 0 .050781 0 .101563.054688.152344.613281 2-.308594 4.046875-2.152344 4.917969-.050781 0-.101562.050781-.101562.050781-.152344.050781-.308594.152343-.460938.253906-.101562.054687-.257812.15625-.359375.207031-.101563.050782-.203125.152344-.359375.253906-.152344.105469-.253906.207032-.40625.308594-.054688.050782-.105469.050782-.105469.101563-.050781.050781-.101562.101562-.152343.15625-.152344.101562-.257813.253906-.410157.355469-.101562.105468-.152343.15625-.253906.257812-.105469.101562-.207031.253906-.308594.359375-.101562.101563-.152343.203125-.257812.304687-.101563.101563-.152344.207032-.253907.359376-.101562.101562-.152343.257812-.257812.359374-.050781.101563-.101562.203126-.203125.304688-.101563.15625-.152344.308594-.203125.410156-.054688.101563-.105469.207032-.15625.308594-.050781.152344-.101562.308594-.203125.460938-.050781.101562-.101563.203124-.101563.359374-.054687.152344-.105468.304688-.15625.40625-.050781.15625-.050781.257813-.101562.410157-.050781.15625-.050781.257812-.101562.410156 0 .152344-.050782.308594-.050782.460937 0 .101563-.050781.257813-.050781.359376v.460937.359375.460938c0 .101562 0 .253906.050781.355468 0 .15625.050782.308594.050782.460938 0 .15625.050781.257812.101562.410156s.050781.257812.101562.410156c.050782.152344.101563.308594.15625.460938.050782.101562.050782.203125.101563.308594.050781.152343.152344.355468.203125.511718.050781.050782.050781.101563.050781.152344.050781.050781.050781.101562.105469.152344.050781.105468.101562.207031.152344.257812.101562.203125.203125.359375.359375.5625 0 .050782.050781.050782.050781.101563.152344.257812.304688.460937.511719.667969 0 0 0 .050781.050781.050781 2.457031 2.96875 2.148438 7.167969-.667969 9.726562-3.839843 3.480469-5.988281 8.703125-5.734375 13.875.410156 7.78125-3.019531 15.257813-9.214844 20.019531-6.195312 4.8125-14.386718 6.246094-21.808593 3.839844l-5.738281-1.792968c-6.859376-2.148438-14.386719-1.277344-20.632813 2.355468-6.296875 3.636719-10.800781 9.78125-12.339844 16.792969-1.894531 8.550781-2.351562 17.359375-1.433593 26.164063.207031 2.613281.105468 5.222656-.355469 7.730468-.050781 0-.050781.054688-.105469.054688l-60.617188-19.203125c-4.609374-1.433594-9.472656 1.078125-10.90625 5.683593-1.433593 4.609376 1.074219 9.472657 5.683594 10.90625l60.773438 19.25c.203125.050782.410156.105469.613281.15625 1.484375.410157 2.96875.613282 4.507813.613282 3.171874 0 6.296874-.871094 9.113281-2.558594 4.300781-2.5625 7.21875-6.863281 8.140625-11.777344.714844-3.992187.921875-8.140625.5625-12.289062 0-.050782 0-.050782 0-.101563s0-.050781 0-.101562c-.769532-6.964844-.410156-13.925781 1.074218-20.6875.511719-2.25 1.996094-4.246094 4.097657-5.476563 2.097656-1.230468 4.453125-1.484375 6.707031-.769531l5.683594 1.792969h.050781c4.09375 1.28125 8.292969 1.945312 12.492187 1.945312 9.011719 0 17.867188-2.96875 25.191407-8.601562 10.699219-8.242188 16.640625-21.195313 15.972656-34.660156 0-.050782.050781-.105469.050781-.105469 7.375-6.707031 9.730469-16.945313 6.707032-25.90625 4.457031-5.324219 6.144531-12.59375 4.148437-19.660157l-.820313-3.328124c.667969-.050782 1.332032-.152344 1.996094-.253907 7.683594-1.027343 14.234375-5.789062 17.460938-12.800781 2.917968-7.21875 2.355468-15.308594-1.84375-21.863281 0 .050781 0 .050781 0 0zm0 0"/><path d="m218.824219 208.71875c1.792969 0 3.585937-.5625 5.171875-1.691406l83.355468-61.234375c3.890626-2.867188 4.710938-8.292969 1.84375-12.1875-2.867187-3.890625-8.296874-4.707031-12.1875-1.839844l-83.300781 61.234375c-3.890625 2.867188-4.710937 8.292969-1.84375 12.183594 1.6875 2.304687 4.300781 3.535156 6.960938 3.535156zm0 0"/><path d="m317.386719 236.007812h-83.660157c-4.8125 0-8.707031 3.890626-8.707031 8.703126s3.894531 8.703124 8.707031 8.703124h83.660157c4.8125 0 8.703125-3.890624 8.703125-8.703124s-3.890625-8.703126-8.703125-8.703126zm0 0"/><path d="m306.789062 344.242188-82.742187-61.949219c-3.839844-2.867188-9.316406-2.101563-12.183594 1.738281-2.867187 3.839844-2.097656 9.320312 1.742188 12.1875l82.738281 61.953125c1.585938 1.175781 3.378906 1.738281 5.222656 1.738281 2.660156 0 5.273438-1.226562 6.960938-3.480468 2.917968-3.890626 2.101562-9.320313-1.738282-12.1875zm0 0"/></svg>