<svg id="Layer_1" enable-background="new 0 0 450 450" height="512" viewBox="0 0 450 450" width="512" xmlns="http://www.w3.org/2000/svg"><g><g id="XMLID_1_"><g fill="rgb(0,0,0)"><path d="m400.15 237.35v138.8c0 3.2-2.6 5.8-5.8 5.8h-162.5c-.1.1-.2.3-.4.4-3.3 3.3-7.8 5.3-12.8 5.3h-150.7c-5 0-9.5-2-12.8-5.3s-5.3-7.8-5.3-12.8v-289.1c0-5 2-9.5 5.3-12.8s7.8-5.3 12.8-5.3h150.7c5 0 9.5 2 12.8 5.3s5.3 7.8 5.3 12.8v93.6l42.5-34.5c2.3-1.9 5.5-1.7 7.6.3l108.5 88c.2.2.4.4.7.5 2.6 2.3 4.1 5.6 4.1 9zm-163.4 133h151.7v-124.1l-70.2 56.9-.7.6 50.3 41.1c2.5 2 2.8 5.6.8 8.1s-5.6 2.8-8.1.8l-52.1-42.6-21.9 17.7c-2.3 1.8-5.5 1.7-7.6-.3l-22.3-18.1-19.9 16.2zm46.1-53.3 95.2-77.1h-141.3v40.3c.7.2 1.4.6 2 1zm.1-165.7-46.2 36.9v40.1h141.2zm-46.2 160.5 10.7-8.8-.5-.4-10.2-8.2zm-11.5 57.7v-35h-163.9v35c0 1.8.7 3.5 1.9 4.7s2.9 1.9 4.7 1.9h150.7c1.8 0 3.5-.7 4.7-1.9s1.9-2.9 1.9-4.7zm0-46.6v-213.7h-163.9v213.7zm0-225.1v-17.3c0-1.9-.7-3.5-1.9-4.7-1.2-1.3-2.9-2-4.7-2h-150.7c-1.8 0-3.5.8-4.7 2s-1.9 2.8-1.9 4.7v17.3z"/><path d="m177.85 355.35c0 2-.4 4-1.1 5.7s-1.8 3.3-3.1 4.6c-2.7 2.7-6.3 4.3-10.3 4.3h-40c-4 0-7.6-1.6-10.3-4.3s-4.3-6.3-4.3-10.3c0-2 .4-3.9 1.1-5.6s1.8-3.3 3.1-4.6c2.7-2.7 6.3-4.3 10.3-4.3h40c4 0 7.6 1.5 10.3 4.2s4.3 6.3 4.3 10.3zm-11.5 0c0-.8-.4-1.5-.9-2.1s-1.3-.9-2.1-.9h-40c-.8 0-1.6.4-2.1.9-.6.5-.9 1.3-.9 2.1s.4 1.6.9 2.1c.5.6 1.3.9 2.1.9h40c.8 0 1.6-.4 2.1-.9s.8-1.3.9-2.1z"/><path d="m170.25 79.95c3.2 0 5.8 2.6 5.8 5.8s-2.6 5.8-5.8 5.8h-54c-3.1 0-5.7-2.6-5.8-5.8 0-3.2 2.6-5.8 5.8-5.8z"/></g></g></g></svg>