<?xml version="1.0" encoding="iso-8859-1"?>
<!-- Generator: Adobe Illustrator 19.0.0, SVG Export Plug-In . SVG Version: 6.00 Build 0)  -->
<svg version="1.1" id="Capa_1" xmlns="http://www.w3.org/2000/svg" xmlns:xlink="http://www.w3.org/1999/xlink" x="0px" y="0px"
	 viewBox="0 0 512 512" style="enable-background:new 0 0 512 512;" xml:space="preserve">
<g>
	<g>
		<path d="M446,0H66c-8.284,0-15,6.716-15,15v482c0,8.284,6.716,15,15,15h380c8.284,0,15-6.716,15-15V15C461,6.716,454.284,0,446,0z
			 M431,482H81V30h350V482z"/>
	</g>
</g>
<g>
	<g>
		<path d="M256,131.774c-38.599,0-70,31.402-70,70c0,38.598,31.401,70,70,70s70-31.402,70-70
			C326,163.176,294.599,131.774,256,131.774z M256,241.774c-22.056,0-40-17.944-40-40c0-22.056,17.944-40,40-40
			c22.056,0,40,17.944,40,40C296,223.83,278.056,241.774,256,241.774z"/>
	</g>
</g>
<g>
	<g>
		<path d="M386,60H126c-8.284,0-15,6.716-15,15v362c0,8.284,6.716,15,15,15h260c8.284,0,15-6.716,15-15V75
			C401,66.716,394.284,60,386,60z M141.974,422c7.371-56.352,55.697-100,114.026-100c58.329,0,106.655,43.648,114.026,100H141.974z
			 M371,348.792C344.47,314.285,302.792,292,256,292s-88.47,22.285-115,56.792V90h230V348.792z"/>
	</g>
</g>
<g>
</g>
<g>
</g>
<g>
</g>
<g>
</g>
<g>
</g>
<g>
</g>
<g>
</g>
<g>
</g>
<g>
</g>
<g>
</g>
<g>
</g>
<g>
</g>
<g>
</g>
<g>
</g>
<g>
</g>
</svg>
