<svg id="Layer_1" enable-background="new 0 0 500 500" viewBox="0 0 500 500" xmlns="http://www.w3.org/2000/svg"><g><path d="m370.344 475h-240.683v-36.357c0-14.232 11.573-25.807 25.802-25.807h7.872v-122.692c0-8.86 7.209-16.069 16.069-16.069h16.147c17.008 0 30.847-13.836 30.847-30.839v-76.663l16.003-11.624c4.544-3.32 10.653-3.312 15.205 0l16 11.624v76.663c0 17.003 13.839 30.839 30.845 30.839h16.145c8.86 0 16.069 7.209 16.069 16.069v122.692h7.872c14.23 0 25.807 11.575 25.807 25.807zm-228.02-12.662h215.358v-23.694c0-7.247-5.896-13.145-13.145-13.145h-20.534v-135.355c0-1.88-1.527-3.406-3.406-3.406h-16.145c-23.991 0-43.507-19.513-43.507-43.502v-70.206l-10.785-7.841-11.098 7.884v70.163c0 23.989-19.521 43.502-43.509 43.502h-16.147c-1.88 0-3.406 1.527-3.406 3.406v135.355h-20.534c-7.244 0-13.14 5.898-13.14 13.145v23.694z"/><path d="m297.28 196.424c-2.642 0-5.286-.833-7.595-2.51l-39.527-28.726-39.839 28.721c-4.62 3.35-10.585 3.35-15.205 0-4.613-3.358-6.454-9.027-4.692-14.456l15.096-46.466-39.62-29.016c-4.618-3.35-6.462-9.028-4.697-14.456 1.763-5.428 6.589-8.934 12.294-8.934h48.859l15.347-46.644c1.763-5.433 6.592-8.939 12.299-8.939 5.705 0 10.534 3.505 12.297 8.939l15.098 46.464 49.108.18c5.703 0 10.531 3.505 12.294 8.928 1.765 5.428-.074 11.105-4.689 14.461-.003 0-39.532 28.713-39.532 28.713l15.002 46.773c1.76 5.423-.081 11.093-4.694 14.451-2.308 1.676-4.954 2.517-7.604 2.517zm-47.279-43.954c2.664 0 5.329.823 7.605 2.479l39.519 28.721-14.687-46.773c-1.737-5.337.15-11.141 4.694-14.451l39.527-28.713c.122-.109-49.011-.488-49.011-.488-5.624 0-10.564-3.592-12.294-8.933l-15.101-46.464-15.601 46.464c-1.737 5.347-6.678 8.933-12.297 8.933h-48.859l39.372 29.201c4.547 3.31 6.432 9.114 4.692 14.456l-15.093 46.464 39.935-28.416c2.273-1.657 4.937-2.48 7.599-2.48z"/><path d="m287.303 425.498h-117.635c-3.498 0-6.332-2.83-6.332-6.33s2.835-6.332 6.332-6.332h117.635c3.495 0 6.33 2.832 6.33 6.332 0 3.501-2.835 6.33-6.33 6.33z"/><path d="m294.125 328.174h-88.248c-3.498 0-6.332-2.832-6.332-6.33 0-3.5 2.835-6.332 6.332-6.332h88.248c3.495 0 6.33 2.832 6.33 6.332 0 3.498-2.834 6.33-6.33 6.33z"/><path d="m294.125 357.464h-88.248c-3.498 0-6.332-2.832-6.332-6.332s2.835-6.33 6.332-6.33h88.248c3.495 0 6.33 2.83 6.33 6.33s-2.834 6.332-6.33 6.332z"/><path d="m294.125 386.752h-88.248c-3.498 0-6.332-2.832-6.332-6.333 0-3.498 2.835-6.33 6.332-6.33h88.248c3.495 0 6.33 2.832 6.33 6.33 0 3.5-2.834 6.333-6.33 6.333z"/><path d="m392.321 475h-284.639c-3.498 0-6.332-2.832-6.332-6.332 0-3.498 2.835-6.33 6.332-6.33h284.639c3.495 0 6.33 2.832 6.33 6.33 0 3.5-2.835 6.332-6.33 6.332z"/></g></svg>