<svg id="Layer_1" enable-background="new 0 0 500 500" viewBox="0 0 500 500" xmlns="http://www.w3.org/2000/svg"><g><path d="m125.671 470.068h-77.54c-3.546 0-6.42-2.874-6.42-6.417v-167.558c0-3.543 2.874-6.417 6.42-6.417h77.54c3.543 0 6.417 2.874 6.417 6.417v167.558c.001 3.543-2.873 6.417-6.417 6.417zm-71.123-12.837h64.703v-154.718h-64.703z"/><path d="m232.621 470.068h-77.541c-3.544 0-6.418-2.874-6.418-6.417v-239.747c0-3.544 2.874-6.417 6.418-6.417 3.546 0 6.42 2.874 6.42 6.417v233.327h64.703v-233.327c0-3.544 2.874-6.417 6.418-6.417 3.546 0 6.42 2.874 6.42 6.417v239.747c0 3.543-2.874 6.417-6.42 6.417z"/><path d="m339.573 470.068h-77.54c-3.546 0-6.42-2.874-6.42-6.417v-200.531c0-3.546 2.874-6.42 6.42-6.42h77.54c3.543 0 6.417 2.874 6.417 6.42v200.531c.001 3.543-2.873 6.417-6.417 6.417zm-71.123-12.837h64.703v-187.694h-64.703z"/><path d="m446.523 470.068h-77.541c-3.543 0-6.417-2.874-6.417-6.417v-239.747c0-3.544 2.874-6.417 6.417-6.417h77.541c3.546 0 6.42 2.874 6.42 6.417v239.747c0 3.543-2.874 6.417-6.42 6.417zm-71.12-12.837h64.703v-226.907h-64.703z"/><path d="m140.711 217.015c-2.423 0-4.844-.749-6.91-2.251-4.141-3.003-5.861-8.29-4.283-13.154l17.658-54.343-46.223-33.581c-4.136-3.008-5.853-8.295-4.272-13.157 1.581-4.865 6.078-8.13 11.189-8.13h57.134l17.653-54.338c1.584-4.865 6.08-8.13 11.192-8.13s9.611 3.265 11.192 8.13l17.656 54.338h57.134c5.112 0 9.608 3.265 11.187 8.13 1.584 4.862-.134 10.149-4.27 13.157l-46.223 33.584 17.653 54.338c1.581 4.865-.136 10.152-4.275 13.157-4.144 3.003-9.701 2.998-13.832-.005l-46.223-33.581-46.223 33.584c-2.065 1.5-4.491 2.252-6.914 2.252zm-29.546-111.778 44.188 32.103c4.138 3.003 5.856 8.295 4.27 13.16l-16.876 51.94 44.186-32.105c4.138-3.003 9.696-3.003 13.832 0l44.186 32.1-16.878-51.94c-1.576-4.867.142-10.154 4.278-13.154l44.186-32.103h-54.618c-5.114 0-9.613-3.268-11.189-8.133l-16.878-51.943-16.878 51.945c-1.576 4.862-6.072 8.13-11.187 8.13z"/><path d="m468.582 470.068h-437.162c-3.546 0-6.42-2.874-6.42-6.417 0-3.546 2.874-6.42 6.42-6.42h437.162c3.544 0 6.418 2.874 6.418 6.42 0 3.543-2.874 6.417-6.418 6.417z"/></g></svg>