<svg height="512" viewBox="0 0 32 32" width="512" xmlns="http://www.w3.org/2000/svg"><g id="soundwave"><path d="m2 10a1 1 0 0 0 -1 1v10a1 1 0 0 0 2 0v-10a1 1 0 0 0 -1-1z"/><path d="m6 5a1 1 0 0 0 -1 1v20a1 1 0 0 0 2 0v-20a1 1 0 0 0 -1-1z"/><path d="m18 10a1 1 0 0 0 -1 1v10a1 1 0 0 0 2 0v-10a1 1 0 0 0 -1-1z"/><path d="m14 5a1 1 0 0 0 -1 1v20a1 1 0 0 0 2 0v-20a1 1 0 0 0 -1-1z"/><path d="m10 1a1 1 0 0 0 -1 1v28a1 1 0 0 0 2 0v-28a1 1 0 0 0 -1-1z"/><path d="m30 10a1 1 0 0 0 -1 1v10a1 1 0 0 0 2 0v-10a1 1 0 0 0 -1-1z"/><path d="m26 5a1 1 0 0 0 -1 1v20a1 1 0 0 0 2 0v-20a1 1 0 0 0 -1-1z"/><path d="m22 1a1 1 0 0 0 -1 1v28a1 1 0 0 0 2 0v-28a1 1 0 0 0 -1-1z"/></g></svg>