<svg id="Layer_1" enable-background="new 0 0 66 66" viewBox="0 0 66 66" xmlns="http://www.w3.org/2000/svg"><g fill="rgb(0,0,0)"><path d="m56.63 19.49c-.34-.37-.88-.37-1.22 0s-.34.96 0 1.33c5.77 6.28 5.77 16.51 0 22.79-.34.37-.34.96 0 1.33.17.18.39.28.61.28s.44-.09.61-.28c6.45-7.02 6.45-18.43 0-25.45z"/><path d="m52.97 23.47c-.34-.37-.88-.37-1.22 0s-.34.96 0 1.33c3.75 4.09 3.75 10.74 0 14.82-.34.37-.34.96 0 1.33.17.18.39.28.61.28s.44-.09.61-.28c2.14-2.33 3.32-5.43 3.32-8.74s-1.17-6.41-3.32-8.74z"/><path d="m48.09 27.46c-.34.37-.34.96 0 1.33 1.74 1.89 1.74 4.96 0 6.85-.34.37-.34.96 0 1.33.17.18.39.28.61.28s.44-.09.61-.28c2.41-2.62 2.41-6.89 0-9.51-.33-.37-.88-.37-1.22 0z"/><path d="m39.09 9.3c-1.7-1.12-3.77-1.19-5.53-.19l-14.76 8.41h-9.09c-2.85 0-5.18 2.53-5.18 5.63v19.69c0 3.11 2.32 5.63 5.18 5.63h9.09l14.76 8.41c.83.47 1.72.71 2.61.71 1.01 0 2.01-.3 2.91-.89 1.7-1.12 2.72-3.08 2.72-5.24v-36.92c.01-2.16-1.01-4.12-2.71-5.24zm-32.83 33.55v-19.7c0-2.07 1.55-3.76 3.45-3.76h8.44v27.21h-8.44c-1.9 0-3.45-1.68-3.45-3.75zm33.82 8.61c0 1.5-.7 2.86-1.88 3.64s-2.61.83-3.83.13l-14.49-8.25v-27.95l14.49-8.25c1.22-.69 2.65-.65 3.83.13s1.88 2.14 1.88 3.64z"/><path d="m14.79 22.31h-5.18c-.48 0-.86.42-.86.94s.39.94.86.94h5.18c.48 0 .86-.42.86-.94.01-.52-.38-.94-.86-.94z"/><path d="m14.79 28.81h-5.18c-.48 0-.86.42-.86.94s.39.94.86.94h5.18c.48 0 .86-.42.86-.94.01-.52-.38-.94-.86-.94z"/><path d="m14.79 35.31h-5.18c-.48 0-.86.42-.86.94s.39.94.86.94h5.18c.48 0 .86-.42.86-.94s-.38-.94-.86-.94z"/><path d="m14.79 41.81h-5.18c-.48 0-.86.42-.86.94s.39.94.86.94h5.18c.48 0 .86-.42.86-.94s-.38-.94-.86-.94z"/></g></svg>