<svg id="Layer_1" height="512" viewBox="0 0 100 100" width="512" xmlns="http://www.w3.org/2000/svg"><g><path d="m25.6 77.7c-1.1 0-2-.9-2-2v-51.4c0-1.1.9-2 2-2s2 .9 2 2v51.4c0 1.1-.9 2-2 2zm29.3-2.2c-1.1 0-2-.9-2-2v-47c0-1.1.9-2 2-2s2 .9 2 2v47.1c0 1-.9 1.9-2 1.9zm29.3-3.6c-1.1 0-2-.9-2-2v-39.8c0-1.1.9-2 2-2s2 .9 2 2v39.8c0 1.1-.9 2-2 2zm-68.4-2.3c-1.1 0-2-.9-2-2v-35.2c0-1.1.9-2 2-2s2 .9 2 2v35.3c0 1.1-.9 1.9-2 1.9zm19.5-.4c-1.1 0-2-.9-2-2v-34.4c0-1.1.9-2 2-2s2 .9 2 2v34.4c0 1.1-.9 2-2 2zm29.4-2.9c-1.1 0-2-.9-2-2v-28.6c0-1.1.9-2 2-2s2 .9 2 2v28.6c0 1.1-.9 2-2 2zm29.3-.3c-1.1 0-2-.9-2-2v-28c0-1.1.9-2 2-2s2 .9 2 2v28c0 1.1-.9 2-2 2zm-48.9-4.4c-1.1 0-2-.9-2-2v-19.2c0-1.1.9-2 2-2s2 .9 2 2v19.2c0 1.1-.9 2-2 2zm-39.1 0c-1.1 0-2-.9-2-2v-19.2c0-1.1.9-2 2-2s2 .9 2 2v19.2c0 1.1-.9 2-2 2zm68.4-3.5c-1.1 0-2-.9-2-2v-12.2c0-1.1.9-2 2-2s2 .9 2 2v12.3c0 1-.9 1.9-2 1.9z"/></g></svg>