<svg id="Capa_1" enable-background="new 0 0 512 512" height="512" viewBox="0 0 512 512" width="512" xmlns="http://www.w3.org/2000/svg"><path d="m512 127.006c0-33.924-13.211-65.818-37.199-89.806-23.987-23.989-55.881-37.2-89.806-37.2-29.104 0-56.709 9.732-79.113 27.643-5.696-3.125-12.987-2.285-17.813 2.541-4.836 4.835-5.669 12.145-2.522 17.846-18.005 22.687-27.791 50.986-27.537 80.125l-184.702 215.082c-7.928 9.232-10.189 21.633-6.973 32.684l-32.88 32.88c-15.53 15.53-18.509 38.924-8.951 57.48l-20.111 20.113c-5.858 5.858-5.858 15.355.001 21.213 2.929 2.929 6.767 4.393 10.606 4.393s7.678-1.465 10.607-4.394l20.098-20.099c6.91 3.576 14.618 5.48 22.622 5.48 13.172 0 25.556-5.129 34.87-14.444l32.875-32.875c3.226.939 6.566 1.413 9.91 1.413 8.111 0 16.242-2.777 22.779-8.392l215.082-184.705c.371.003.742.016 1.113.016 28.747 0 56.618-9.772 79.017-27.548 2.246 1.238 4.736 1.867 7.232 1.867 3.838 0 7.678-1.465 10.606-4.394 4.824-4.823 5.666-12.11 2.546-17.805 17.911-22.403 27.643-50.008 27.643-79.114zm-58.412-68.593c18.322 18.322 28.412 42.682 28.412 68.593 0 20.866-6.548 40.724-18.664 57.235l-135.574-135.576c16.511-12.117 36.368-18.665 57.233-18.665 25.912 0 50.271 10.091 68.593 28.413zm-68.807 165.586-96.777-96.779c-.037-20.663 6.526-40.74 18.579-57.309l135.507 135.509c-16.568 12.053-36.645 18.617-57.309 18.579zm-302.797 233.333c-3.648 3.648-8.498 5.657-13.657 5.657s-10.009-2.009-13.656-5.657l-.002-.002c-7.53-7.531-7.53-19.784 0-27.315l29.835-29.835 13.658 13.658 13.657 13.658zm67.232-41.4c-1.971 1.694-4.955 1.581-6.794-.258l-46.098-46.1c-1.836-1.838-1.948-4.821-.256-6.793l177.905-207.167 82.408 82.411z"/><path d="m243.444 247.333-23.254 23.254c-5.858 5.858-5.858 15.355 0 21.213 2.929 2.929 6.768 4.394 10.606 4.394s7.678-1.464 10.606-4.394l23.254-23.254c5.858-5.858 5.858-15.355 0-21.213-5.857-5.859-15.355-5.859-21.212 0z"/></svg>