<svg height="512" viewBox="0 0 74 74" width="512" xmlns="http://www.w3.org/2000/svg"><g id="Numbers"><text fill="rgb(0,0,0)" font-family="ArialMT, Arial" font-size="18" transform="translate(37.995 -762.544)">8<tspan x="-5.005" y="124">18</tspan><tspan x="-5.005" y="248">28</tspan><tspan x="-5.005" y="372">38</tspan><tspan x="-5.005" y="496">48</tspan><tspan x="-5.005" y="620">58</tspan><tspan x="-5.005" y="744">68</tspan><tspan x="-5.005" y="868">78</tspan><tspan x="-5.005" y="992">88</tspan><tspan x="-5.005" y="1116">98</tspan><tspan x="-10.011" y="1240">108</tspan><tspan letter-spacing="-.074em" x="-9.343" y="1364">1</tspan><tspan x="-.668" y="1364">18</tspan><tspan x="-10.011" y="1488">128</tspan><tspan x="-10.011" y="1612">138</tspan><tspan x="-10.011" y="1736">148</tspan><tspan x="-10.011" y="1860">158</tspan><tspan x="-10.011" y="1984">168</tspan><tspan x="-10.011" y="2108">178</tspan><tspan x="-10.011" y="2232">188</tspan><tspan x="-10.011" y="2356">198</tspan><tspan x="-10.011" y="2480">208</tspan><tspan x="-10.011" y="2604">218</tspan><tspan x="-10.011" y="2728">228</tspan><tspan x="-10.011" y="2852">238</tspan><tspan x="-10.011" y="2976">248</tspan><tspan x="-10.011" y="3100">258</tspan><tspan x="-10.011" y="3224">268</tspan><tspan x="-10.011" y="3348">278</tspan><tspan x="-10.011" y="3472">288</tspan><tspan x="-10.011" y="3596">298</tspan></text></g><g id="Icons"><path d="m56.917 32.2q-.706 0-1.416-.066a1 1 0 0 1 -.614-.289l-12.734-12.732a1 1 0 0 1 -.289-.614 15.1 15.1 0 1 1 25.712 9.282 15.04 15.04 0 0 1 -10.659 4.419zm-.877-2.029a13.039 13.039 0 0 0 10.122-3.805 13.1 13.1 0 1 0 -22.334-8.408z"/><path d="m18.84 61.991a6.826 6.826 0 0 1 -5.178-11.291l28.438-32.947 1.514 1.307-28.438 32.94a4.836 4.836 0 0 0 6.824 6.825l32.94-28.442 1.307 1.517-32.947 28.438a6.817 6.817 0 0 1 -4.46 1.653z"/><path d="m59.732.247h2v26.038h-2z" transform="matrix(.707 -.707 .707 .707 8.408 46.83)"/><path d="m52.061 7.918h2v26.038h-2z" transform="matrix(.707 -.707 .707 .707 .736 43.651)"/><path d="m37.722 39.448a3.15 3.15 0 0 1 -2.241-.928 3.17 3.17 0 0 1 0-4.483l6.135-6.137a3.244 3.244 0 0 1 4.482 0 3.168 3.168 0 0 1 0 4.482l-6.136 6.138a3.145 3.145 0 0 1 -2.24.928zm6.136-10.476a1.161 1.161 0 0 0 -.827.343l-6.136 6.136a1.169 1.169 0 0 0 0 1.654 1.2 1.2 0 0 0 1.653 0l6.137-6.137a1.17 1.17 0 0 0 -.827-2z"/><path d="m7.422 71.906a6.145 6.145 0 0 1 -3.729-1 4.57 4.57 0 0 1 -1.693-3.906c0-5.051 11.167-8.317 12.439-8.672l.539 1.926c-4.558 1.275-10.978 4.212-10.978 6.746a2.671 2.671 0 0 0 .887 2.3c2.089 1.554 7.921-.2 12.607-1.608 6.062-1.821 11.3-3.394 12.452-.02a6.68 6.68 0 0 1 .324 3.528l-1.959-.4a4.727 4.727 0 0 0 -.257-2.474c-.529-1.555-6 .09-9.984 1.287-3.776 1.133-7.638 2.293-10.648 2.293z"/></g></svg>