<svg xmlns="http://www.w3.org/2000/svg" xmlns:xlink="http://www.w3.org/1999/xlink" width="500" zoomAndPan="magnify" viewBox="0 0 375 374.999991" height="500" preserveAspectRatio="xMidYMid meet" version="1.0"><defs><g/><clipPath id="347804906a"><path d="M 187.5 0 C 83.945312 0 0 83.945312 0 187.5 C 0 291.054688 83.945312 375 187.5 375 C 291.054688 375 375 291.054688 375 187.5 C 375 83.945312 291.054688 0 187.5 0 Z M 187.5 0 " clip-rule="nonzero"/></clipPath><clipPath id="c8a63d1607"><path d="M 187.5 0 L 375 187.5 L 187.5 375 L 0 187.5 Z M 187.5 0 " clip-rule="nonzero"/></clipPath><clipPath id="9549bcc36c"><path d="M 54.917969 54.917969 L 320.082031 54.917969 L 320.082031 320.082031 L 54.917969 320.082031 Z M 54.917969 54.917969 " clip-rule="nonzero"/></clipPath><clipPath id="7f85edbc05"><path d="M 187.5 -77.664062 L 452.664062 187.5 L 187.5 452.664062 L -77.664062 187.5 Z M 187.5 -77.664062 " clip-rule="nonzero"/></clipPath><clipPath id="6fc5d65ae2"><path d="M 14 14 L 361 14 L 361 361 L 14 361 Z M 14 14 " clip-rule="nonzero"/></clipPath><clipPath id="83cd510b1d"><path d="M 287.789062 -58.105469 L 432.96875 287.652344 L 87.210938 432.832031 L -57.96875 87.074219 Z M 287.789062 -58.105469 " clip-rule="nonzero"/></clipPath><clipPath id="7d662fccd2"><path d="M 360.378906 114.773438 L 260.089844 360.242188 L 14.621094 259.953125 L 114.910156 14.484375 Z M 360.378906 114.773438 " clip-rule="nonzero"/></clipPath><clipPath id="f2e92fe6be"><path d="M 19 14 L 368 14 L 368 363 L 19 363 Z M 19 14 " clip-rule="nonzero"/></clipPath><clipPath id="18968e0d7a"><path d="M 437.375 85.21875 L 296.695312 432.832031 L -50.917969 292.152344 L 89.761719 -55.457031 Z M 437.375 85.21875 " clip-rule="nonzero"/></clipPath><clipPath id="18f3fe427f"><path d="M 367.035156 259.027344 L 122.890625 362.492188 L 19.421875 118.347656 L 263.566406 14.878906 Z M 367.035156 259.027344 " clip-rule="nonzero"/></clipPath></defs><g clip-path="url(#347804906a)"><rect x="-37.5" width="450" fill="#2e254b" y="-37.499999" height="449.999989" fill-opacity="1"/></g><g clip-path="url(#c8a63d1607)"><rect x="-37.5" width="450" fill="#f8f8f1" y="-37.499999" height="449.999989" fill-opacity="1"/></g><g clip-path="url(#9549bcc36c)"><g clip-path="url(#7f85edbc05)"><path fill="#f8f8f1" d="M 187.5 -77.664062 L 452.664062 187.5 L 187.5 452.664062 L -77.664062 187.5 Z M 187.5 -77.664062 " fill-opacity="1" fill-rule="nonzero"/></g></g><g clip-path="url(#6fc5d65ae2)"><g clip-path="url(#83cd510b1d)"><g clip-path="url(#7d662fccd2)"><path fill="#f8f8f1" d="M 287.789062 -58.105469 L 432.96875 287.652344 L 87.210938 432.832031 L -57.96875 87.074219 Z M 287.789062 -58.105469 " fill-opacity="1" fill-rule="nonzero"/></g></g></g><g clip-path="url(#f2e92fe6be)"><g clip-path="url(#18968e0d7a)"><g clip-path="url(#18f3fe427f)"><path fill="#f8f8f1" d="M 437.375 85.21875 L 296.695312 432.832031 L -50.917969 292.152344 L 89.761719 -55.457031 Z M 437.375 85.21875 " fill-opacity="1" fill-rule="nonzero"/></g></g></g><g fill="#56a29a" fill-opacity="1"><g transform="translate(141.74128, 237.61412)"><g><path d="M 7.5 -2.25 L 16.5 -4.5 L 16.5 -100.5 L 7.5 -102.75 L 7.5 -105 L 50.25 -105 L 50.25 -102.75 L 41.25 -100.5 L 41.25 -3.75 L 73.5 -3.75 C 73.5 -10.050781 75.097656 -15.898438 78.296875 -21.296875 C 79.703125 -23.597656 81.351562 -25.5 83.25 -27 L 87.75 -27 L 87.75 0 L 7.5 0 Z M 7.5 -2.25 "/></g></g></g><g fill="#cc9d20" fill-opacity="1"><g transform="translate(34.578485, 237.61412)"><g><path d="M 7.5 -2.25 L 16.5 -4.5 L 16.5 -100.5 L 7.5 -102.75 L 7.5 -105 L 87.75 -105 L 87.75 -78 L 83.25 -78 C 81.351562 -79.5 79.703125 -81.398438 78.296875 -83.703125 C 75.097656 -89.097656 73.5 -94.945312 73.5 -101.25 L 41.25 -101.25 L 41.25 -54 L 58.5 -54 C 59.195312 -57.800781 60.5 -61.351562 62.40625 -64.65625 C 63.195312 -66.15625 64.144531 -67.601562 65.25 -69 L 69.75 -69 L 69.75 -35.25 L 65.25 -35.25 C 64.144531 -36.644531 63.195312 -38.09375 62.40625 -39.59375 C 60.5 -42.894531 59.195312 -46.445312 58.5 -50.25 L 41.25 -50.25 L 41.25 -3.75 L 76.5 -3.75 C 76.5 -10.050781 78.097656 -15.898438 81.296875 -21.296875 C 82.703125 -23.597656 84.351562 -25.5 86.25 -27 L 90.75 -27 L 90.75 0 L 7.5 0 Z M 7.5 -2.25 "/></g></g></g><g fill="#a34726" fill-opacity="1"><g transform="translate(241.258084, 237.61412)"><g><path d="M 7.5 -2.25 L 16.5 -4.5 L 16.5 -100.5 L 7.5 -102.75 L 7.5 -105 L 48 -105 C 63.195312 -105 74.367188 -102.570312 81.515625 -97.71875 C 88.671875 -92.875 92.25 -86.550781 92.25 -78.75 C 92.25 -73.351562 90.695312 -69.003906 87.59375 -65.703125 C 84.5 -62.398438 80.550781 -59.945312 75.75 -58.34375 C 70.644531 -56.550781 65.144531 -55.601562 59.25 -55.5 L 59.25 -54.75 C 66.550781 -54.445312 72.898438 -53.347656 78.296875 -51.453125 C 83.796875 -49.648438 88.367188 -46.847656 92.015625 -43.046875 C 95.671875 -39.242188 97.5 -34.394531 97.5 -28.5 C 97.5 -19.601562 93.847656 -12.628906 86.546875 -7.578125 C 79.242188 -2.523438 67.394531 0 51 0 L 7.5 0 Z M 48 -57 C 51.300781 -57 54.375 -57.921875 57.21875 -59.765625 C 60.070312 -61.617188 62.375 -64.21875 64.125 -67.5625 C 65.875 -70.914062 66.75 -74.644531 66.75 -78.75 C 66.75 -83.144531 65.875 -87.039062 64.125 -90.4375 C 62.375 -93.84375 60.070312 -96.492188 57.21875 -98.390625 C 54.375 -100.296875 51.300781 -101.25 48 -101.25 L 41.25 -101.25 L 41.25 -57 Z M 51 -3.75 C 57.195312 -3.75 62.242188 -5.945312 66.140625 -10.34375 C 70.046875 -14.75 72 -20.800781 72 -28.5 C 72 -36.195312 70.046875 -42.242188 66.140625 -46.640625 C 62.242188 -51.046875 57.195312 -53.25 51 -53.25 L 41.25 -53.25 L 41.25 -3.75 Z M 51 -3.75 "/></g></g></g></svg>