<svg xmlns="http://www.w3.org/2000/svg" xmlns:xlink="http://www.w3.org/1999/xlink" width="500" zoomAndPan="magnify" viewBox="0 0 375 374.999991" height="500" preserveAspectRatio="xMidYMid meet" version="1.0"><defs><g/><clipPath id="ca7286fd46"><path d="M 187.5 0 C 83.945312 0 0 83.945312 0 187.5 C 0 291.054688 83.945312 375 187.5 375 C 291.054688 375 375 291.054688 375 187.5 C 375 83.945312 291.054688 0 187.5 0 Z M 187.5 0 " clip-rule="nonzero"/></clipPath><clipPath id="ae057b543b"><path d="M 187.5 0 L 375 187.5 L 187.5 375 L 0 187.5 Z M 187.5 0 " clip-rule="nonzero"/></clipPath><clipPath id="90dfd0b531"><path d="M 54.917969 54.917969 L 320.082031 54.917969 L 320.082031 320.082031 L 54.917969 320.082031 Z M 54.917969 54.917969 " clip-rule="nonzero"/></clipPath><clipPath id="edbf5d801c"><path d="M 187.5 -77.664062 L 452.664062 187.5 L 187.5 452.664062 L -77.664062 187.5 Z M 187.5 -77.664062 " clip-rule="nonzero"/></clipPath><clipPath id="b07ecf0ed7"><path d="M 14 14 L 361 14 L 361 361 L 14 361 Z M 14 14 " clip-rule="nonzero"/></clipPath><clipPath id="f43cdd530e"><path d="M 287.789062 -58.105469 L 432.96875 287.652344 L 87.210938 432.832031 L -57.96875 87.074219 Z M 287.789062 -58.105469 " clip-rule="nonzero"/></clipPath><clipPath id="161a002cef"><path d="M 360.378906 114.773438 L 260.089844 360.242188 L 14.621094 259.953125 L 114.910156 14.484375 Z M 360.378906 114.773438 " clip-rule="nonzero"/></clipPath><clipPath id="37cf896302"><path d="M 19 14 L 368 14 L 368 363 L 19 363 Z M 19 14 " clip-rule="nonzero"/></clipPath><clipPath id="3bbd2f5c9a"><path d="M 437.375 85.21875 L 296.695312 432.832031 L -50.917969 292.152344 L 89.761719 -55.457031 Z M 437.375 85.21875 " clip-rule="nonzero"/></clipPath><clipPath id="39d1b8e661"><path d="M 367.035156 259.027344 L 122.890625 362.492188 L 19.421875 118.347656 L 263.566406 14.878906 Z M 367.035156 259.027344 " clip-rule="nonzero"/></clipPath></defs><g clip-path="url(#ca7286fd46)"><rect x="-37.5" width="450" fill="#2e254b" y="-37.499999" height="449.999989" fill-opacity="1"/></g><g clip-path="url(#ae057b543b)"><rect x="-37.5" width="450" fill="#f8f8f1" y="-37.499999" height="449.999989" fill-opacity="1"/></g><g clip-path="url(#90dfd0b531)"><g clip-path="url(#edbf5d801c)"><path fill="#f8f8f1" d="M 187.5 -77.664062 L 452.664062 187.5 L 187.5 452.664062 L -77.664062 187.5 Z M 187.5 -77.664062 " fill-opacity="1" fill-rule="nonzero"/></g></g><g clip-path="url(#b07ecf0ed7)"><g clip-path="url(#f43cdd530e)"><g clip-path="url(#161a002cef)"><path fill="#f8f8f1" d="M 287.789062 -58.105469 L 432.96875 287.652344 L 87.210938 432.832031 L -57.96875 87.074219 Z M 287.789062 -58.105469 " fill-opacity="1" fill-rule="nonzero"/></g></g></g><g clip-path="url(#37cf896302)"><g clip-path="url(#3bbd2f5c9a)"><g clip-path="url(#39d1b8e661)"><path fill="#f8f8f1" d="M 437.375 85.21875 L 296.695312 432.832031 L -50.917969 292.152344 L 89.761719 -55.457031 Z M 437.375 85.21875 " fill-opacity="1" fill-rule="nonzero"/></g></g></g><g fill="#a34726" fill-opacity="1"><g transform="translate(92.729764, 298.742213)"><g><path d="M 15.578125 -4.671875 L 34.28125 -9.34375 L 34.28125 -208.75 L 15.578125 -213.4375 L 15.578125 -218.109375 L 182.265625 -218.109375 L 182.265625 -162.015625 L 172.921875 -162.015625 C 168.972656 -165.128906 165.546875 -169.078125 162.640625 -173.859375 C 155.992188 -185.078125 152.671875 -197.226562 152.671875 -210.3125 L 85.6875 -210.3125 L 85.6875 -112.171875 L 121.515625 -112.171875 C 122.972656 -120.066406 125.671875 -127.441406 129.609375 -134.296875 C 131.273438 -137.410156 133.25 -140.421875 135.53125 -143.328125 L 144.890625 -143.328125 L 144.890625 -73.21875 L 135.53125 -73.21875 C 133.25 -76.125 131.273438 -79.132812 129.609375 -82.25 C 125.671875 -89.101562 122.972656 -96.476562 121.515625 -104.375 L 85.6875 -104.375 L 85.6875 -7.796875 L 158.90625 -7.796875 C 158.90625 -20.878906 162.226562 -33.03125 168.875 -44.25 C 171.78125 -49.019531 175.207031 -52.960938 179.15625 -56.078125 L 188.5 -56.078125 L 188.5 0 L 15.578125 0 Z M 15.578125 -4.671875 "/></g></g></g><g fill="#56a29a" fill-opacity="1"><g transform="translate(84.957836, 297.239242)"><g><path d="M 15.890625 -4.765625 L 34.96875 -9.53125 L 34.96875 -213 L 15.890625 -217.765625 L 15.890625 -222.53125 L 185.96875 -222.53125 L 185.96875 -165.3125 L 176.4375 -165.3125 C 172.40625 -168.488281 168.910156 -172.515625 165.953125 -177.390625 C 159.171875 -188.835938 155.78125 -201.238281 155.78125 -214.59375 L 87.421875 -214.59375 L 87.421875 -114.453125 L 123.984375 -114.453125 C 125.460938 -122.503906 128.21875 -130.023438 132.25 -137.015625 C 133.945312 -140.191406 135.960938 -143.265625 138.296875 -146.234375 L 147.828125 -146.234375 L 147.828125 -74.703125 L 138.296875 -74.703125 C 135.960938 -77.671875 133.945312 -80.742188 132.25 -83.921875 C 128.21875 -90.921875 125.460938 -98.445312 123.984375 -106.5 L 87.421875 -106.5 L 87.421875 -7.953125 L 162.125 -7.953125 C 162.125 -21.296875 165.519531 -33.691406 172.3125 -45.140625 C 175.269531 -50.015625 178.765625 -54.039062 182.796875 -57.21875 L 192.328125 -57.21875 L 192.328125 0 L 15.890625 0 Z M 15.890625 -4.765625 "/></g></g></g><g fill="#cc9d20" fill-opacity="1"><g transform="translate(77.44942, 295.710522)"><g><path d="M 16.15625 -4.84375 L 35.53125 -9.6875 L 35.53125 -216.421875 L 16.15625 -221.265625 L 16.15625 -226.109375 L 188.96875 -226.109375 L 188.96875 -167.96875 L 179.28125 -167.96875 C 175.1875 -171.195312 171.628906 -175.289062 168.609375 -180.25 C 161.722656 -191.875 158.28125 -204.46875 158.28125 -218.03125 L 88.828125 -218.03125 L 88.828125 -116.28125 L 125.96875 -116.28125 C 127.476562 -124.46875 130.28125 -132.113281 134.375 -139.21875 C 136.09375 -142.445312 138.140625 -145.570312 140.515625 -148.59375 L 150.203125 -148.59375 L 150.203125 -75.90625 L 140.515625 -75.90625 C 138.140625 -78.925781 136.09375 -82.050781 134.375 -85.28125 C 130.28125 -92.382812 127.476562 -100.023438 125.96875 -108.203125 L 88.828125 -108.203125 L 88.828125 -8.078125 L 164.734375 -8.078125 C 164.734375 -21.640625 168.179688 -34.238281 175.078125 -45.875 C 178.085938 -50.820312 181.640625 -54.910156 185.734375 -58.140625 L 195.421875 -58.140625 L 195.421875 0 L 16.15625 0 Z M 16.15625 -4.84375 "/></g></g></g></svg>